<mxfile host="app.diagrams.net" modified="2023-10-13T09:50:13.990Z" agent="Mozilla/5.0 (Windows NT 10.0; Win64; x64) AppleWebKit/537.36 (KHTML, like Gecko) Chrome/117.0.0.0 Safari/537.36 Edg/117.0.2045.60" version="22.0.0" etag="XBap11H3aJjhXvb7rsS-" type="github">
  <diagram name="Page-1" id="HHMUkYn5-Q8uycMOV6Rx">
    <mxGraphModel>
      <root>
        <mxCell id="0" />
        <mxCell id="1" parent="0" />
      </root>
    </mxGraphModel>
  </diagram>
</mxfile>
